:FULLY-SPECIFIED
:FORCE-ALL-JOINTS-BE-3DOF
:DEGREES
1
root 6.24314 16.836 -28.1378 9.0217 -2.52979 -3.05774
lfemur -20.3712 2.30257 -19.9954
ltibia 35.927 0 0
lfoot -38.654 3.93715 0
ltoes 38.9541 0 0
rfemur -19.4747 0.22019 19.5256
rtibia 36.0342 0 0
rfoot -30.3779 -10.4967 0
rtoes 21.4483 0 0
lowerback -2.05144 3.66971 -5.03766
upperback -2.66728 5.00355 3.49279
thorax -2.36397 2.67023 6.42441
lowerneck -9.84699 -2.36864 1.94815
upperneck -1.37933 -3.32542 -1.65382
head 1.16433 -1.69823 -0.975663
lclavicle -1.65488e-14 -3.69739e-14 0
lhumerus -41.7253 -10.8128 99.8312
lradius 34.5094 0 0
lwrist 2.17521 0 0
lhand -10.5949 9.65639 0
lfingers 7.12502 0 0
lthumb 15.4107 39.062 0
rclavicle -1.65488e-14 -3.69739e-14 0
rhumerus -43.273 -4.86223 -84.2703
rradius 40.4763 0 0
rwrist 9.89469 0 0
rhand -23.7965 -22.476 0
rfingers 7.12502 0 0
rthumb 2.67393 -52.439 0
2
root 6.23523 16.8387 -28.1346 8.9713 -2.57348 -3.1042
lfemur -20.3665 2.34383 -20.003
ltibia 36.0114 -0 0
lfoot -38.8019 3.92595 -0.000364163
ltoes 39.1183 -0 0
rfemur -19.5796 -0.0241384 19.5343
rtibia 36.27 -0 0
rfoot -30.5143 -10.1559 0.0102812
rtoes 21.9244 -0 0
lowerback -1.89603 3.73625 -5.247
upperback -2.70464 5.08868 3.63967
thorax -2.52297 2.72841 6.6843
lowerneck -9.86145 -2.40511 1.90315
upperneck -1.30849 -3.36656 -1.78069
head 1.18777 -1.72096 -1.01005
lclavicle -1.65488e-14 -3.69739e-14 0
lhumerus -41.7361 -10.7101 99.9775
lradius 34.2476 -0 0
lwrist 1.97689 0 0
lhand -10.5395 9.92268 -0.00321833
lfingers 7.12502 -0 0
lthumb 15.4641 39.3244 -0.00305544
rclavicle -1.65488e-14 -3.69739e-14 0
rhumerus -43.4041 -4.84939 -84.0294
rradius 40.5428 -0 0
rwrist 9.85528 0 0
rhand -23.6792 -22.5585 0.0021435
rfingers 7.12502 -0 0
rthumb 2.7872 -52.5208 0.00205307
3
root 6.2279 16.8415 -28.1313 8.93179 -2.60833 -3.1417
lfemur -20.3589 2.37608 -20.0079
ltibia 36.0722 -0 0
lfoot -38.9185 3.91776 -0.000678498
ltoes 39.2549 -0 0
rfemur -19.6525 -0.193573 19.5417
rtibia 36.4408 -0 0
rfoot -30.6168 -9.90838 0.0188094
rtoes 22.3149 -0 0
lowerback -1.77861 3.78801 -5.41059
upperback -2.73344 5.15445 3.7568
thorax -2.64406 2.77398 6.89016
lowerneck -9.87323 -2.4332 1.86566
upperneck -1.25305 -3.39779 -1.88199
head 1.2062 -1.73833 -1.03714
lclavicle -1.65488e-14 -3.69739e-14 0
lhumerus -41.7454 -10.6245 100.088
lradius 34.0268 -0 0
lwrist 1.81379 0 0
lhand -10.4947 10.1236 -0.00608874
lfingers 7.12502 -0 0
lthumb 15.5073 39.5221 -0.00577945
rclavicle -1.65488e-14 -3.69739e-14 0
rhumerus -43.505 -4.83943 -83.8396
rradius 40.5969 -0 0
rwrist 9.82615 0 0
rhand -23.6015 -22.6102 0.00352131
rfingers 7.12502 -0 0
rthumb 2.86227 -52.572 0.00337161
4
root 6.22106 16.8442 -28.128 8.90272 -2.63464 -3.17056
lfemur -20.3485 2.39966 -20.0103
ltibia 36.1106 -0 0
lfoot -39.0051 3.91244 -0.00093003
ltoes 39.3647 -0 0
rfemur -19.6949 -0.291811 19.5477
rtibia 36.5495 -0 0
rfoot -30.6869 -9.74993 0.0252223
rtoes 22.6227 -0 0
lowerback -1.69743 3.82532 -5.53031
upperback -2.75413 5.20161 3.84529
thorax -2.72895 2.80709 7.04411
lowerneck -9.88243 -2.45326 1.83546
upperneck -1.21244 -3.41959 -1.95863
head 1.21981 -1.75056 -1.0572
lclavicle -1.65488e-14 -3.69739e-14 0
lhumerus -41.7532 -10.5556 100.165
lradius 33.8459 -0 0
lwrist 1.68477 0 0
lhand -10.46 10.262 -0.00849824
lfingers 7.12502 -0 0
lthumb 15.5407 39.6581 -0.00806467
rclavicle -1.65488e-14 -3.69739e-14 0
rhumerus -43.577 -4.83247 -83.6988
rradius 40.639 -0 0
rwrist 9.80685 0 0
rhand -23.5613 -22.6326 0.00406856
rfingers 7.12502 -0 0
rthumb 2.9011 -52.5942 0.00389353
5
root 6.21461 16.8468 -28.1247 8.88367 -2.65272 -3.19111
lfemur -20.3356 2.41494 -20.0104
ltibia 36.1277 -0 0
lfoot -39.0628 3.90987 -0.00111108
ltoes 39.4484 -0 0
rfemur -19.7084 -0.322543 19.5522
rtibia 36.5993 -0 0
rfoot -30.7261 -9.67618 0.0293321
rtoes 22.8503 -0 0
lowerback -1.65078 3.84861 -5.60804
upperback -2.76711 5.23093 3.90624
thorax -2.77934 2.82805 7.14824
lowerneck -9.88914 -2.46563 1.81232
upperneck -1.18609 -3.43244 -2.01154
head 1.22879 -1.75788 -1.07052
lclavicle -1.65488e-14 -3.69739e-14 0
lhumerus -41.7597 -10.5029 100.21
lradius 33.7039 -0 0
lwrist 1.58872 0 0
lhand -10.4351 10.3408 -0.0103732
lfingers 7.12502 -0 0
lthumb 15.5646 39.7351 -0.00984129
rclavicle -1.65488e-14 -3.69739e-14 0
rhumerus -43.6213 -4.82857 -83.6051
rradius 40.6695 -0 0
rwrist 9.79692 0 0
rhand -23.5566 -22.6276 0.00378384
rfingers 7.12502 -0 0
rthumb 2.90565 -52.5891 0.00361758
